HIERARCHY
ROOT hip
{
	OFFSET 0.000000 0.000000 0.000000 
	CHANNELS 6 Xposition Yposition Zposition Xrotation Zrotation Yrotation
	JOINT abdomen
	{
		OFFSET 0.000000 3.402643 0.000000 
		CHANNELS 3 Xrotation Zrotation Yrotation
		JOINT chest
		{
			OFFSET 0.000000 8.438565 -0.680529 
			CHANNELS 3 Xrotation Zrotation Yrotation
			JOINT neck
			{
				OFFSET 0.000000 10.207942 -0.272212 
				CHANNELS 3 Xrotation Zrotation Yrotation
				JOINT head
				{
					OFFSET 0.000000 3.130431 0.000000 
					CHANNELS 3 Xrotation Zrotation Yrotation
					End Site
					{
						OFFSET 0.000000 3.130435 0.000000 
					}
				}
			}
			JOINT lCollar
			{
				OFFSET 3.470700 6.669187 -0.816635 
				CHANNELS 3 Yrotation Zrotation Xrotation
				JOINT lShldr
				{
					OFFSET 3.198488 0.000000 0.000000 
					CHANNELS 3 Zrotation Yrotation Xrotation
					JOINT lForeArm
					{
						OFFSET 10.139888 0.000000 0.000000 
						CHANNELS 3 Yrotation Zrotation Xrotation
						JOINT lHand
						{
							OFFSET 8.370511 0.000000 0.000000 
							CHANNELS 3 Zrotation Yrotation Xrotation
							End Site
							{
								OFFSET 4.083176 0.000000 0.000000 
							}
						}
					}
				}
			}
			JOINT rCollar
			{
				OFFSET -3.470700 6.669187 -0.816635 
				CHANNELS 3 Yrotation Zrotation Xrotation
				JOINT rShldr
				{
					OFFSET -3.198488 0.000000 0.000000 
					CHANNELS 3 Zrotation Yrotation Xrotation
					JOINT rForeArm
					{
						OFFSET -10.139888 0.000000 0.000000 
						CHANNELS 3 Yrotation Zrotation Xrotation
						JOINT rHand
						{
							OFFSET -8.370511 0.000000 0.000000 
							CHANNELS 3 Zrotation Yrotation Xrotation
							End Site
							{
								OFFSET -4.083176 0.000000 0.000000 
							}
						}
					}
				}
			}
		}
	}
	JOINT lThigh
	{
		OFFSET 5.308129 -1.633274 1.361059 
		CHANNELS 3 Xrotation Zrotation Yrotation
		JOINT lShin
		{
			OFFSET -2.041588 -20.007561 0.000000 
			CHANNELS 3 Xrotation Zrotation Yrotation
			JOINT lFoot
			{
				OFFSET 0.000000 -19.190928 -1.224953 
				CHANNELS 3 Xrotation Yrotation Zrotation
				End Site
				{
					OFFSET 0.000000 -2.449906 4.627600 
				}
			}
		}
	}
	JOINT rThigh
	{
		OFFSET -5.308129 -1.633274 1.361059 
		CHANNELS 3 Xrotation Zrotation Yrotation
		JOINT rShin
		{
			OFFSET 2.041588 -20.007561 0.000000 
			CHANNELS 3 Xrotation Zrotation Yrotation
			JOINT rFoot
			{
				OFFSET 0.000000 -19.190928 -1.224953 
				CHANNELS 3 Xrotation Yrotation Zrotation
				End Site
				{
					OFFSET 0.000000 -2.449906 4.627600 
				}
			}
		}
	}
}
MOTION
Frames: 13
Frame Time: 0.033333
-0.088388 52.435539 -0.108878 -1.582031 0.000000 -145.205078 14.990235 -1.611328 -0.136993 -10.966796 1.552734 -1.728251 51.064453 8.115234 2.472081 -48.125000 -6.406250 5.312500 10.908203 29.999216 -2.211791 -114.609375 53.427734 -15.949190 -114.511719 0.996094 -2.880859 5.761719 36.601563 -4.203160 -6.035156 -30.000000 0.771484 107.080078 -56.826168 -9.558955 115.019524 -0.976563 -3.105469 -25.400393 -43.886723 8.164063 3.964699 12.809981 -2.982406 7.548703 -5.214705 -1.091637 -3.615189 -0.832326 -8.028051 6.305212 -14.193680 -11.592794 7.554290 4.788332 0.809024 -0.487718 -5.246010 15.562078 
-0.212162 52.427662 -0.273486 -1.601563 -0.175781 -145.205078 14.990235 -1.611328 -0.136993 -10.263672 1.562500 -1.357415 51.064453 8.115234 2.472081 -48.496094 -6.552734 4.824219 10.917969 30.000000 -2.294922 -114.013672 52.617188 -16.056694 -114.335938 0.917969 -2.968750 5.429688 36.660152 -4.248047 -6.992188 -30.000000 0.224610 106.572266 -56.044926 -9.529587 115.019524 -0.976563 -3.105469 -25.683594 -44.453121 8.203124 4.834075 13.220441 -2.674690 6.843906 -5.318606 -1.046950 -3.644931 -0.573417 -8.502715 6.470160 -14.163431 -11.599093 7.553666 4.789732 0.799346 -0.482343 -4.703869 15.651061 
-0.324473 52.411911 -0.457873 -1.425781 -0.175781 -145.205109 15.166017 -1.601563 -0.146757 -9.902344 1.562500 -0.995823 51.064453 8.115234 2.472081 -48.496094 -6.552734 4.296875 10.849608 30.000000 -2.177735 -113.388672 52.421871 -15.703126 -114.511719 0.996094 -2.871094 5.214844 36.748047 -4.476580 -7.568360 -30.000000 -0.253906 106.259766 -55.703129 -9.549084 115.195305 -0.986328 -3.105469 -25.361330 -44.775391 7.988281 5.487054 13.237874 -3.003700 6.152270 -5.331576 -0.969379 -3.799074 -0.585574 -8.703143 6.793889 -14.087787 -11.638097 7.553669 4.789727 0.799346 -0.436780 -4.609870 15.508248 
-0.402299 52.404034 -0.670765 -1.425781 -0.361328 -145.029282 15.166015 -1.660156 0.019531 -10.429687 1.738281 -0.634469 51.064453 8.115234 2.472081 -47.783203 -6.601562 3.505859 10.898438 30.000000 -2.309571 -112.304688 52.978519 -15.146484 -114.863281 1.015625 -2.871267 5.078125 36.376957 -4.511719 -8.046876 -30.000000 -0.527344 106.513672 -56.524666 -10.039860 115.537102 -1.074219 -3.173838 -25.527342 -44.492188 7.913080 5.856122 12.754825 -3.012716 5.624038 -5.233150 -0.912062 -3.836967 -0.569096 -8.306518 7.214543 -14.128548 -12.025982 7.553693 4.789689 0.799344 -0.817965 -4.688818 15.230480 
-0.440156 52.396152 -0.856075 -1.425781 -0.361328 -145.029282 15.175780 -1.894531 0.146484 -11.494141 1.738281 -0.312204 51.064453 8.115234 2.472081 -46.533203 -6.523438 2.324219 10.576172 29.999998 -2.011719 -111.074219 54.111328 -14.454979 -115.214844 1.025391 -3.037284 4.394531 36.201172 -5.189545 -8.330078 -30.000000 -0.761719 107.285156 -57.851559 -10.957032 116.074219 -0.908203 -3.242188 -25.517578 -44.179688 7.431641 6.238344 13.003487 -2.939117 5.084563 -5.240636 -0.867367 -4.045537 -0.732066 -8.561350 7.359139 -14.066850 -12.225150 7.553704 4.789674 0.799343 -0.974218 -4.559032 15.302511 
-0.435897 52.396152 -0.913414 -1.425781 -0.175781 -145.205109 15.351561 -1.953125 0.302734 -12.373047 1.728516 -0.165721 51.064453 8.115234 2.472081 -45.644527 -6.406250 1.707895 10.351563 30.000000 -1.914062 -110.996094 55.546875 -14.630619 -115.742188 1.044922 -3.037287 4.111328 35.595703 -5.004080 -8.515625 -30.000000 -0.786131 107.500000 -58.925785 -11.601563 116.777344 -0.937500 -3.242187 -25.644529 -43.710941 7.503018 6.511829 13.286051 -3.052709 4.733536 -5.182287 -0.846361 -4.057439 -0.263749 -8.894719 7.212063 -13.949605 -12.190597 7.557414 4.801741 0.809654 -0.957125 -4.239117 15.088538 
-0.430831 52.380390 -0.857738 -1.425781 -0.175781 -145.205109 15.703124 -1.943359 0.283203 -12.900391 1.562500 -0.019531 51.064453 8.115234 2.472081 -45.468750 -6.425781 1.337891 9.853516 30.000000 -1.625977 -111.289063 56.445316 -15.177408 -116.435547 1.074219 -2.881043 3.974609 35.478516 -5.029296 -8.828125 -30.000000 -1.054688 107.392578 -59.453129 -11.600208 117.470703 -1.142578 -3.037110 -25.234377 -43.437500 6.718751 6.511829 13.286051 -3.052709 4.557703 -5.182398 -0.861001 -4.177368 -0.407680 -8.821345 6.979305 -13.825011 -12.159929 7.726680 4.778022 0.647132 -1.171874 -4.045476 14.998472 
-0.368190 52.380390 -0.738063 -1.425781 0.000000 -145.380859 16.230469 -1.767578 0.302433 -13.427734 1.562500 -0.039062 51.064453 8.115234 2.472081 -45.468750 -6.425781 1.162109 9.560547 30.000000 -1.372071 -111.943359 57.177738 -16.446871 -116.953125 1.445313 -2.627200 2.822266 34.902340 -5.927735 -9.111327 -30.000000 -1.293944 107.568359 -60.244141 -12.381524 118.359375 -1.093750 -3.124814 -24.462891 -42.968750 5.800781 6.023740 13.080335 -3.127680 5.084653 -5.240727 -0.857619 -4.171689 -0.377224 -8.522764 6.687261 -13.893887 -12.310723 7.904343 4.779407 0.836666 -0.824317 -4.062204 14.808731 
-0.269791 52.380390 -0.566466 -1.240234 0.000000 -145.380859 16.572266 -1.699219 0.126953 -13.945313 1.377008 0.107639 51.064453 8.115234 2.472081 -45.654297 -6.582032 0.985209 9.306641 30.000000 -1.186523 -112.304688 57.333988 -17.978516 -118.017578 1.298828 -2.675781 1.806641 35.000004 -6.625257 -9.589844 -30.000000 -1.557616 107.187500 -60.527348 -13.193360 119.414070 -0.966797 -3.183429 -23.642576 -42.812504 4.749224 6.071302 13.449106 -3.072550 5.087368 -5.292320 -0.878443 -4.473474 -0.354979 -8.935988 6.375477 -13.953197 -12.458764 8.259607 4.761986 0.688363 -0.647434 -4.179400 14.740854 
-0.159398 52.498566 -0.348158 -1.240234 0.000000 -145.566406 16.923828 -1.533203 0.156250 -14.472655 1.210938 0.078331 51.064453 8.115234 2.472081 -46.005859 -6.562500 0.858259 9.101563 30.000000 -1.079101 -112.675781 56.894531 -19.933228 -118.896492 1.240234 -2.783203 -0.146484 35.000000 -8.007812 -10.039063 -30.000000 -1.787109 106.708984 -61.484371 -14.412875 121.337891 -1.396484 -2.890637 -21.162107 -42.363281 2.542248 6.366216 13.521214 -2.882330 3.853841 -5.190543 -0.597907 -3.449795 -0.237702 -8.927848 5.632668 -13.913335 -12.202096 8.612955 4.772763 0.707263 0.048299 -3.730877 14.628066 
0.088849 52.703396 0.126595 -1.425781 0.341797 -145.742203 17.275391 -1.357422 0.195082 -14.999999 1.210938 0.068566 51.064453 8.115234 2.472081 -47.070309 -6.484375 0.975460 8.935546 29.999998 -1.025391 -113.671875 55.625004 -23.126705 -120.830078 1.386719 -2.851799 -3.203125 35.048828 -10.322266 -10.800781 -30.000000 -2.285156 107.021484 -62.275391 -17.519531 123.974602 -1.494141 -2.871094 -17.441406 -41.650391 -0.260397 5.339128 13.088224 -3.026155 3.867849 -5.263899 -0.756740 -1.995491 -0.103179 -8.702239 4.217060 -14.206970 -12.062412 9.322056 4.761034 0.948626 1.900433 -3.317065 14.165260 
0.490984 52.939735 0.835145 -1.767578 0.683594 -145.927628 17.792969 -1.123047 0.068168 -15.351561 1.035156 0.039239 51.064453 8.115234 2.472081 -49.023438 -6.513672 1.180533 9.111327 29.999998 -0.908203 -114.023438 53.837891 -26.845703 -123.115242 1.308594 -2.900390 -7.900391 34.863285 -14.580077 -11.035156 -30.000000 -2.387695 107.373047 -61.318363 -21.445314 126.249992 -1.660156 -2.910171 -12.333985 -41.503902 -3.808593 3.593985 13.182200 -2.989607 4.558547 -5.260661 -0.804174 0.418953 0.080392 -8.760444 2.457440 -14.014894 -11.720425 10.012335 5.130731 1.049037 4.124072 -3.376576 14.272336 
0.931431 53.160324 1.553414 -2.646484 1.210938 -146.142578 18.144533 -1.123047 0.058402 -15.878907 0.849609 0.195312 51.064453 8.115234 2.472081 -51.494141 -6.308594 1.464844 9.160156 29.999998 -0.839844 -114.003906 51.474613 -30.166016 -125.214836 1.718750 -2.588183 -13.330078 35.087887 -18.832275 -10.605470 -30.000000 -2.158203 109.609375 -58.818359 -28.769529 128.886719 -1.787109 -2.987977 -3.857421 -42.050781 -9.742867 1.894570 13.034012 -2.776449 3.854609 -5.249271 -0.764577 2.299386 0.140854 -8.437790 -0.235678 -14.357985 -10.745865 11.090131 5.113253 0.971365 6.446074 -2.913436 14.407664 
